<svg id="Layer_1" data-name="Layer 1" xmlns="http://www.w3.org/2000/svg" viewBox="0 0 48 48">
  <defs>
    <style>
      .cls-1 {
        stroke-width: 0px;
      }
    </style>
  </defs>
  <path class="cls-1" d="M32.671,24.626c-.298-2.319-1.524-4.541-3.684-6.064-2.952-2.081-7.023-2.081-9.975,0-2.16,1.523-3.386,3.745-3.684,6.064-.211,1.64-1.224,3.03-2.713,3.749-3.047,1.472-5.11,4.658-4.935,8.308.209,4.365,3.793,8.014,8.154,8.298,2.081.135,4.017-.459,5.579-1.552,1.545-1.08,3.628-1.08,5.173,0,1.562,1.092,3.497,1.687,5.579,1.552,4.361-.284,7.944-3.933,8.154-8.298.175-3.65-1.888-6.836-4.935-8.308-1.489-.72-2.502-2.109-2.713-3.749Z" id="id_101" style="fill: rgb(254, 250, 224);"></path>
  <path class="cls-1" d="M6.977,17.296l-.901-2.456c-.146-.397-.66-.488-.936-.168-.91,1.054-2.432,3.438-2.091,7.33.212,2.421,2.101,4.233,4.219,4.048s3.664-2.298,3.452-4.719c-.196-2.236-1.826-3.932-3.742-4.035Z" id="id_102" style="fill: rgb(254, 250, 224);"></path>
  <path class="cls-1" d="M12.247,11.072c.238,2.723,2.394,4.759,4.815,4.548s4.19-2.591,3.952-5.315-2.394-4.759-4.815-4.548c-.03.003-.057.014-.087.018l-.885-2.413c-.146-.397-.66-.488-.936-.168-.91,1.054-2.432,3.438-2.091,7.33l.048.548Z" id="id_103" style="fill: rgb(254, 250, 224);"></path>
  <path class="cls-1" d="M35.753,11.072c-.238,2.723-2.394,4.759-4.815,4.548s-4.19-2.591-3.952-5.315,2.394-4.759,4.815-4.548c.03.003.057.014.087.018l.885-2.413c.146-.397.66-.488.936-.168.91,1.054,2.432,3.438,2.091,7.33l-.048.548Z" id="id_104" style="fill: rgb(254, 250, 224);"></path>
  <path class="cls-1" d="M43.22,15.324l-1.506,2.139c-1.878-.397-3.891.819-4.659,2.929-.831,2.283.115,4.724,2.113,5.451s4.292-.534,5.123-2.818c1.336-3.672.483-6.368-.123-7.622-.184-.381-.704-.425-.948-.08Z" id="id_105" style="fill: rgb(254, 250, 224);"></path>
</svg>